<svg width="24" height="24" viewBox="0 0 24 24" fill="none" xmlns="http://www.w3.org/2000/svg">
<circle cx="12" cy="12" r="12" fill="#090B0B"/>
<path d="M19.9848 7.54077C18.8219 6.53417 17.5477 6.52906 16.1983 6.77943C16.232 6.6568 16.2553 6.5725 16.2501 6.59038C15.4757 6.87652 14.678 7.20353 13.8596 7.4539C13.5436 7.55099 13.1733 7.46668 12.8262 7.46923C12.6501 7.47179 12.474 7.4769 12.2979 7.48967C11.394 7.55354 10.4772 7.74259 9.58881 7.65573C8.67456 7.56631 7.7888 7.21375 6.88492 6.85608C6.96003 6.95316 7.03513 7.0528 7.15427 7.20353C5.77643 7.13455 4.48405 7.18565 3.50247 8.26377C3.35743 7.57909 3.68635 6.77177 4.37268 6.21993C5.88779 5.0013 7.46765 5.22101 9.09672 6.03854C8.9724 5.90569 8.84809 5.77284 8.72377 5.63999C8.76262 5.57612 8.76003 5.58123 8.79888 5.51481C9.2573 5.63999 9.74161 5.71408 10.1715 5.90569C11.2023 6.36556 12.1606 6.29147 13.1267 5.73197C13.5074 5.51225 13.9528 5.39729 14.3672 5.23634C14.4113 5.2951 14.4061 5.28743 14.4501 5.34619L14.0331 5.87759C15.4964 4.89655 17.0141 4.44435 18.6613 5.41262C19.4228 5.86737 19.889 6.53162 19.9848 7.54077Z" fill="url(#paint0_linear)"/>
<path d="M14.7141 9.42625L15.4833 9.38793C15.043 9.12479 14.6105 8.86675 14.2168 8.63171C15.1362 8.71602 16.0634 8.79777 16.9621 8.87953C16.9699 8.86931 16.8974 8.96894 16.8223 9.06603C16.8637 9.12479 16.9466 9.14012 17.0062 9.09924C17.405 8.82077 17.8064 8.53974 18.1898 8.27148C18.3607 8.8361 18.1949 9.32151 17.6795 9.65619C16.9181 10.1518 15.5066 10.0496 14.7141 9.42625Z" fill="url(#paint1_linear)"/>
<path d="M5.26883 8.89502C5.74279 9.16838 6.19085 9.42897 6.6415 9.68956C6.69071 9.62058 6.68035 9.52605 6.61819 9.46729C6.56639 9.4162 6.52495 9.38043 6.51977 9.37277C7.38222 9.22203 8.29905 9.06364 9.15632 8.9129C9.07862 8.98444 8.91805 9.15561 8.73416 9.29612C8.53474 9.44686 8.3146 9.57204 7.98049 9.78664C8.36898 9.74321 8.61503 9.71511 8.87661 9.68445C8.31978 10.3794 6.68553 10.6323 5.94999 10.2491C5.39574 9.95526 5.15488 9.49284 5.26883 8.89502Z" fill="url(#paint2_linear)"/>
<path d="M12.7535 17.0423C12.7535 17.0423 16.0375 16.286 17.936 14.6944C17.7184 14.1809 17.361 13.6648 17.405 13.7951C16.988 12.7502 16.5219 12.5279 16.2862 12.4947C15.8951 12.9188 15.5403 13.302 15.1854 13.6852C15.1052 13.6214 15.1388 13.6469 15.0585 13.5831C15.1077 13.5141 15.1595 13.4476 15.2088 13.3787C16.0634 12.2137 15.8355 10.9618 14.6131 10.1826C14.1961 9.91691 13.7662 9.66654 13.3259 9.43406C12.8182 9.1658 12.3236 9.34975 12.1034 9.87093C12.0128 10.083 11.948 10.3052 11.8315 10.6374C11.7098 10.3768 11.6346 10.2184 11.5621 10.06C11.241 9.35997 10.7411 9.22456 10.1014 9.67165C9.7699 9.90414 9.4358 10.1315 9.11465 10.3742C7.9181 11.2761 7.76529 12.5458 8.71062 13.7108C8.82198 13.8488 8.94112 13.9842 9.05767 14.1221C9.01105 14.1732 9.024 14.1579 8.97997 14.2064C8.58112 13.9331 8.18486 13.6571 7.77047 13.371C7.00126 14.4875 6.62054 15.6882 6.5791 16.9758L6.6827 17.055C6.68529 17.0576 9.6663 17.916 12.7535 17.0423ZM14.6312 11.5009C13.5331 12.7604 12.9322 12.8805 12.3132 11.9505C13.1083 11.9097 13.7118 11.1534 14.6312 11.5009ZM11.4715 11.9914C10.982 12.9878 10.2827 12.9086 9.1509 11.764C10.0004 11.3221 10.6816 12.0272 11.4715 11.9914Z" fill="url(#paint3_linear)"/>
<path d="M17.4958 16.314C15.6699 16.8582 14.3025 17.129 13.1603 17.2874C11.5727 17.6528 9.79339 17.9134 7.95971 17.9159C7.9105 17.9287 7.8587 17.9389 7.80691 17.9517C7.12575 18.1458 7.27856 18.0385 6.78906 18.3119L9.54734 18.4907C9.63022 18.4958 9.64576 18.6083 9.57065 18.6364C9.13554 18.8024 8.74446 18.9532 8.30676 19.1218C9.13036 20.0492 10.0109 20.6802 11.1401 20.8871C12.6656 21.1682 14.1315 20.9076 15.5249 20.297C16.2838 19.9649 17.1384 19.0528 17.4518 18.2966C17.8636 17.3002 18.4981 16.0151 17.4958 16.314Z" fill="url(#paint4_linear)"/>
<defs>
<linearGradient id="paint0_linear" x1="3.46875" y1="4.875" x2="14.1641" y2="14.6394" gradientUnits="userSpaceOnUse">
<stop stop-color="#FD499D"/>
<stop offset="1" stop-color="#FF810A"/>
</linearGradient>
<linearGradient id="paint1_linear" x1="14.2168" y1="8.27148" x2="18.2177" y2="10.0531" gradientUnits="userSpaceOnUse">
<stop stop-color="#FD499D"/>
<stop offset="1" stop-color="#FF810A"/>
</linearGradient>
<linearGradient id="paint2_linear" x1="5.24121" y1="8.89502" x2="9.02387" y2="10.7048" gradientUnits="userSpaceOnUse">
<stop stop-color="#FD499D"/>
<stop offset="1" stop-color="#FF810A"/>
</linearGradient>
<linearGradient id="paint3_linear" x1="6.5791" y1="9.31152" x2="19.1978" y2="12.6163" gradientUnits="userSpaceOnUse">
<stop stop-color="#FD499D"/>
<stop offset="1" stop-color="#FF810A"/>
</linearGradient>
<linearGradient id="paint4_linear" x1="6.78906" y1="16.27" x2="17.9295" y2="21.2303" gradientUnits="userSpaceOnUse">
<stop stop-color="#FD499D"/>
<stop offset="1" stop-color="#FF810A"/>
</linearGradient>
</defs>
</svg>
